/* XPM */
static const char * auth_icon_xpm[] = {
"32 32 5 1",
" 	c None",
".	c #808000",
"+	c #C0C0C0",
"@	c #000000",
"#	c #FFFF00",
"                                ",
"                                ",
"                                ",
"                                ",
"                                ",
"                                ",
"                                ",
"                                ",
"                                ",
"              ....              ",
"             .+@@.@             ",
"            .+@  ..@            ",
"            .@    .@            ",
"            .@    .@            ",
"            .@.....@.           ",
"           ..........@          ",
"          .         .@          ",
"          . ########.@          ",
"          . .......+.@          ",
"          . ########.@          ",
"          . .......+.@          ",
"          . ########.@          ",
"          ...........@          ",
"          @@@@@@@@@@@           ",
"                                ",
"                                ",
"                                ",
"                                ",
"                                ",
"                                ",
"                                ",
"                                "};
